<svg width="1200" height="800" viewBox="0 0 1200 800" fill="none" xmlns="http://www.w3.org/2000/svg">
  <defs>
    <linearGradient id="bg" x1="0" y1="0" x2="1" y2="1">
      <stop offset="0%" stop-color="#ffffff"/>
      <stop offset="60%" stop-color="#f6f4ec"/>
      <stop offset="100%" stop-color="#eef7ef"/>
    </linearGradient>
    <linearGradient id="accent" x1="0" y1="0" x2="1" y2="1">
      <stop offset="0%" stop-color="#facc15"/>
      <stop offset="100%" stop-color="#34d399"/>
    </linearGradient>
    <linearGradient id="glass" x1="0" y1="0" x2="0" y2="1">
      <stop offset="0%" stop-color="#ffffff" stop-opacity="0.6"/>
      <stop offset="100%" stop-color="#ffffff" stop-opacity="0"/>
    </linearGradient>
  </defs>
  <rect width="1200" height="800" fill="url(#bg)"/>
  <rect x="80" y="110" width="1040" height="580" rx="48" fill="#ffffff" stroke="#e2f2e6" stroke-width="2"/>
  <rect x="140" y="170" width="920" height="460" rx="36" fill="#f8f7f1" stroke="#e6f2e3" stroke-width="2"/>
  <rect x="200" y="220" width="320" height="340" rx="24" fill="#f1f5ee"/>
  <rect x="560" y="220" width="420" height="200" rx="24" fill="#f1f5ee"/>
  <rect x="560" y="450" width="420" height="110" rx="24" fill="#eef3ea"/>
  <rect x="240" y="260" width="240" height="40" rx="20" fill="url(#accent)"/>
  <rect x="240" y="320" width="200" height="24" rx="12" fill="#e2ebe0"/>
  <rect x="240" y="360" width="180" height="24" rx="12" fill="#e2ebe0"/>
  <rect x="240" y="430" width="220" height="32" rx="16" fill="#e2ebe0"/>
  <rect x="240" y="480" width="160" height="24" rx="12" fill="#e2ebe0"/>
  <circle cx="870" cy="310" r="70" fill="#fef3c7" opacity="0.6"/>
  <circle cx="940" cy="320" r="40" fill="#d1fae5" opacity="0.7"/>
  <rect x="600" y="250" width="320" height="26" rx="13" fill="#e2ebe0"/>
  <rect x="600" y="290" width="280" height="20" rx="10" fill="#e2ebe0"/>
  <rect x="600" y="470" width="280" height="22" rx="11" fill="#e2ebe0"/>
  <rect x="600" y="505" width="200" height="18" rx="9" fill="#e2ebe0"/>
  <rect x="80" y="110" width="1040" height="580" rx="48" fill="url(#glass)"/>
  <path d="M120 690 C240 640 380 620 520 640 C700 660 860 720 1080 690" stroke="#a7f3d0" stroke-width="2" opacity="0.6"/>
</svg>
